<svg xmlns="http://www.w3.org/2000/svg" viewBox="0 0 24 24" width="24" height="24" fill="none" stroke="#3a2418" stroke-width="2.4" stroke-linecap="round" stroke-linejoin="round"><title>Quizzes</title><defs><filter id="s" x="-20%" y="-20%" width="140%" height="150%"><feDropShadow dx="0" dy="1.2" stdDeviation="0" flood-color="#3a2418" flood-opacity=".35"/></filter></defs><g filter="url(#s)"><path d="M5 4h14a2 2 0 0 1 2 2v9a2 2 0 0 1-2 2h-7l-4 4v-4H5a2 2 0 0 1-2-2V6a2 2 0 0 1 2-2z" fill="#fbe6d2"/><path d="M9.6 9.2a2.5 2.5 0 1 1 3.4 2.3c-.7.4-1 .9-1 1.6" fill="none"/><circle cx="12" cy="15.3" r="0.4" fill="#a5481f"/></g></svg>
